  0
SECTION
  2
HEADER
  9
$ACADVER
  1
AC1009
  9
$INSBASE
 10
0
 20
0
 30
0
  9
$EXTMIN
 10
0
 20
0
  9
$EXTMAX
 10
841
 20
594
  9
$LIMMIN
 10
0
 20
0
  9
$LIMMAX
 10
841
 20
594
  9
$LTSCALE
 40
1
  0
ENDSEC
  0
SECTION
  2
TABLES
  0
TABLE
  2
LTYPE
 70
     9
  0
LTYPE
  2
CONTINUOUS
 70
    64
  3
実線
 72
    65
 73
     0
 40
0.0
  0
LTYPE
  2
DASHED1
 70
    64
  3
--  --  --  --  --  --  --  --  
 72
    65
 73
     2
 40
2.5
 49
1.25
 49
-1.25
  0
LTYPE
  2
DASHED2
 70
    64
  3
----    ----    ----    ----    
 72
    65
 73
     2
 40
5.0
 49
2.5
 49
-2.5
  0
LTYPE
  2
DASHED3
 70
    64
  3
------  ------  ------  ------  
 72
    65
 73
     2
 40
5.0
 49
3.75
 49
-1.25
  0
LTYPE
  2
CENTER1
 70
    64
  3
----- - ----- - ----- - ----- - 
 72
    65
 73
     4
 40
10.0
 49
6.25
 49
-1.25
 49
1.25
 49
-1.25
  0
LTYPE
  2
CENTER2
 70
    64
  3
----------  --  ----------  --  
 72
    65
 73
     4
 40
20.0
 49
12.5
 49
-2.5
 49
2.5
 49
-2.5
  0
LTYPE
  2
PHANTOM1
 70
    64
  3
--- - - --- - - --- - - --- - - 
 72
    65
 73
     6
 40
10.0
 49
3.25
 49
-1.25
 49
1.25
 49
-1.25
 49
1.25
 49
-1.25
  0
LTYPE
  2
PHANTOM2
 70
    64
  3
--------  -  -  --------  -  -  
 72
    65
 73
     6
 40
20.0
 49
10.0
 49
-2.5
 49
1.25
 49
-2.5
 49
1.25
 49
-2.5
  0
LTYPE
  2
DOT
 70
    64
  3
-   -   -   -   -   -   -   -   
 72
    65
 73
     2
 40
2.5
 49
0.625
 49
-1.875
  0
LTYPE
  2
DUMMY
 70
    64
  3
ダミー
 72
    65
 73
     0
 40
0.0
  0
LTYPE
  2
RAND1
 70
    64
  3
ランダム線1
 72
    65
 73
     4
 40
10.0
 49
1.0
 49
-2.0
 49
3.0
 49
-4.0
  0
LTYPE
  2
RAND2
 70
    64
  3
ランダム線2
 72
    65
 73
     4
 40
14.0
 49
2.0
 49
-3.0
 49
4.0
 49
-5.0
  0
LTYPE
  2
RAND3
 70
    64
  3
ランダム線3
 72
    65
 73
     4
 40
18.0
 49
3.0
 49
-4.0
 49
5.0
 49
-6.0
  0
LTYPE
  2
RAND4
 70
    64
  3
ランダム線4
 72
    65
 73
     4
 40
22.0
 49
4.0
 49
-5.0
 49
6.0
 49
-7.0
  0
LTYPE
  2
RAND5
 70
    64
  3
ランダム線5
 72
    65
 73
     4
 40
26.0
 49
5.0
 49
-6.0
 49
7.0
 49
-8.0
  0
LTYPE
  2
LONG1
 70
    64
  3
----------  --  ----------  --  
 72
    65
 73
     4
 40
40.0
 49
32.5
 49
-2.5
 49
2.5
 49
-2.5
  0
LTYPE
  2
LONG2
 70
    64
  3
--------  -  -  --------  -  -  
 72
    65
 73
     6
 40
40.0
 49
30.0
 49
-2.5
 49
1.25
 49
-2.5
 49
1.25
 49
-2.5
  0
LTYPE
  2
LONG3
 70
    64
  3
+++++++++++++++..+++++++++++++++
 72
    65
 73
     2
 40
40.0
 49
37.5
 49
-2.5
  0
LTYPE
  2
LONG4
 70
    64
  3
+++++++++++++++..+++++++++++++++
 72
    65
 73
     2
 40
80.0
 49
75.0
 49
-5.0
  0
LTYPE
  2
LONG5
 70
    64
  3
----------  --  ----------  --  
 72
    65
 73
     4
 40
60.0
 49
37.5
 49
-7.5
 49
7.5
 49
-7.5
  0
LTYPE
  2
dashed
 70
   64
  3
-------   -------------   ------
 72
   65
 73
    2
 40
7.5
 49
6
 49
-1.5
  0
LTYPE
  2
dashed_spaced
 70
   64
  3
----        --------        ----
 72
   65
 73
    2
 40
12
 49
6
 49
-6
  0
LTYPE
  2
long_dashed_dotted
 70
   64
  3
------------- --- --------------
 72
   65
 73
    4
 40
15.25
 49
12
 49
-1.5
 49
0.25
 49
-1.5
  0
LTYPE
  2
long_dashed_double-dotted
 70
   64
  3
----------- --- --- ------------
 72
   65
 73
    6
 40
17
 49
12
 49
-1.5
 49
0.25
 49
-1.5
 49
0.25
 49
-1.5
  0
LTYPE
  2
long_dashed_triplicate-dotted
 70
   64
  3
--------- --- --- --- ----------
 72
   65
 73
    8
 40
18.75
 49
12
 49
-1.5
 49
0.25
 49
-1.5
 49
0.25
 49
-1.5
 49
0.25
 49
-1.5
  0
LTYPE
  2
dotted
 70
   64
  3
   -       -       -       -    
 72
   65
 73
    2
 40
1.75
 49
0.25
 49
-1.5
  0
LTYPE
  2
chain
 70
   64
  3
-------------- -- --------------
 72
   65
 73
    4
 40
18.5
 49
12
 49
-1.5
 49
3.5
 49
-1.5
  0
LTYPE
  2
chain_double_dash
 70
   64
  3
------------ -- -- -------------
 72
   65
 73
    6
 40
23.5
 49
12
 49
-1.5
 49
3.5
 49
-1.5
 49
3.5
 49
-1.5
  0
LTYPE
  2
dashed_dotted
 70
   64
  3
-----------     -     ----------
 72
   65
 73
    4
 40
9.25
 49
6
 49
-1.5
 49
0.25
 49
-1.5
  0
LTYPE
  2
double-dashed_dotted
 70
   64
  3
------   -----------   -   -----
 72
   65
 73
    6
 40
16.75
 49
6
 49
-1.5
 49
6
 49
-1.5
 49
0.25
 49
-1.5
  0
LTYPE
  2
dashed_double-dotted
 70
   64
  3
---------    -    -    ---------
 72
   65
 73
    6
 40
11
 49
6
 49
-1.5
 49
0.25
 49
-1.5
 49
0.25
 49
-1.5
  0
LTYPE
  2
double-dashed_double-dotted
 70
   64
  3
-----   ---------   -   -   ----
 72
   65
 73
    8
 40
18.5
 49
6
 49
-1.5
 49
6
 49
-1.5
 49
0.25
 49
-1.5
 49
0.25
 49
-1.5
  0
LTYPE
  2
dashed_triplicate-dotted
 70
   64
  3
-------    -    -    -    ------
 72
   65
 73
    8
 40
12.75
 49
6
 49
-1.5
 49
0.25
 49
-1.5
 49
0.25
 49
-1.5
 49
0.25
 49
-1.5
  0
LTYPE
  2
double-dashed_triplicate-dotted
 70
   64
  3
-----  ---------  -  -  -  -----
 72
   65
 73
   10
 40
20.25
 49
6
 49
-1.5
 49
6
 49
-1.5
 49
0.25
 49
-1.5
 49
0.25
 49
-1.5
 49
0.25
 49
-1.5
  0
LTYPE
  2
undefined
 70
   64
  3
--------------------------------
 72
   65
 73
    0
 40
0
  0
ENDTAB
  0
TABLE
  2
STYLE
  5
3
100
AcDbSymbolTable
 70
     1
  0
STYLE
  5
10
100
AcDbSymbolTableRecord
100
AcDbTextStyleTableRecord
  2
STANDARD
 70
     0
 40
0.0
 41
1.0
 50
0.0
 71
     0
 42
0.2
  3
txt
  4
bigfont.shx
  0
STYLE
  5
26
100
AcDbSymbolTableRecord
100
AcDbTextStyleTableRecord
  2
TATEGAKI
 70
    68
 40
0.0
 41
1.0
 50
0.0
 71
     0
 42
1.0
  3
txt
  4
bigfont.shx
  0
ENDTAB
  0
TABLE
  2
LAYER
 70
    2
  0
LAYER
  2
_0-0_
 70
   64
 62
    7
  6
CONTINUOUS
  0
LAYER
  2
ADD_LINE
 70
   64
 62
    7
  6
CONTINUOUS
  0
ENDTAB
  0
ENDSEC
  0
SECTION
  2
BLOCKS
  0
ENDSEC
  0
SECTION
  2
ENTITIES
  0
LINE
  8
_0-0_
  6
CENTER1
 62
    4
 10
277.72064056939502
 20
363.60320284697508
 11
277.72064056939502
 21
393.60320284697508
  0
LINE
  8
_0-0_
  6
CONTINUOUS
 62
    7
 10
287.72064056939502
 20
303.60320284697508
 11
277.72064056939502
 21
293.60320284697508
  0
LINE
  8
_0-0_
  6
CONTINUOUS
 62
    7
 10
277.72064056939502
 20
293.60320284697508
 11
277.72064056939502
 21
203.60320284697508
  0
LINE
  8
_0-0_
  6
CONTINUOUS
 62
    7
 10
287.72064056939502
 20
303.60320284697508
 11
377.72064056939502
 21
303.60320284697508
  0
LINE
  8
_0-0_
  6
CONTINUOUS
 62
    7
 10
277.72064056939502
 20
203.60320284697508
 11
377.72064056939502
 21
203.60320284697508
  0
LINE
  8
_0-0_
  6
CONTINUOUS
 62
    7
 10
377.72064056939502
 20
203.60320284697508
 11
377.72064056939502
 21
303.60320284697508
  0
LINE
  8
_0-0_
  6
CENTER1
 62
    4
 10
377.72064056939502
 20
303.60320284697508
 11
377.72064056939502
 21
333.60320284697508
  0
LINE
  8
_0-0_
  6
CENTER1
 62
    4
 10
377.72064056939502
 20
303.60320284697508
 11
407.72064056939502
 21
303.60320284697508
  0
LINE
  8
_0-0_
  6
CENTER1
 62
    4
 10
377.72064056939502
 20
203.60320284697508
 11
407.72064056939502
 21
203.60320284697508
  0
LINE
  8
_0-0_
  6
CONTINUOUS
 62
    7
 10
277.72064056939502
 20
333.60320284697508
 11
377.72064056939502
 21
333.60320284697508
  0
LINE
  8
_0-0_
  6
CONTINUOUS
 62
    7
 10
377.72064056939502
 20
333.60320284697508
 11
377.72064056939502
 21
363.60320284697508
  0
LINE
  8
_0-0_
  6
CONTINUOUS
 62
    7
 10
377.72064056939502
 20
363.60320284697508
 11
277.72064056939502
 21
363.60320284697508
  0
LINE
  8
_0-0_
  6
CONTINUOUS
 62
    7
 10
277.72064056939502
 20
363.60320284697508
 11
277.72064056939502
 21
333.60320284697508
  0
LINE
  8
_0-0_
  6
CONTINUOUS
 62
    7
 10
407.72064056939502
 20
303.60320284697508
 11
407.72064056939502
 21
203.60320284697508
  0
LINE
  8
_0-0_
  6
CONTINUOUS
 62
    7
 10
407.72064056939502
 20
203.60320284697508
 11
437.72064056939502
 21
203.60320284697508
  0
LINE
  8
_0-0_
  6
CONTINUOUS
 62
    7
 10
437.72064056939502
 20
203.60320284697508
 11
437.72064056939502
 21
303.60320284697508
  0
LINE
  8
_0-0_
  6
CONTINUOUS
 62
    7
 10
437.72064056939502
 20
303.60320284697508
 11
407.72064056939502
 21
303.60320284697508
  0
LINE
  8
_0-0_
  6
CENTER1
 62
    4
 10
377.72064056939502
 20
363.60320284697508
 11
377.72064056939502
 21
393.60320284697508
  0
LINE
  8
_0-0_
  6
CENTER1
 62
    4
 10
407.72064056939502
 20
303.60320284697508
 11
407.72064056939502
 21
333.60320284697508
  0
LINE
  8
_0-0_
  6
CENTER1
 62
    4
 10
437.72064056939502
 20
303.60320284697508
 11
437.72064056939502
 21
333.60320284697508
  0
LINE
  8
_0-0_
  6
CENTER1
 62
    4
 10
437.72064056939502
 20
303.60320284697508
 11
467.72064056939502
 21
303.60320284697508
  0
LINE
  8
_0-0_
  6
CENTER1
 62
    4
 10
437.72064056939502
 20
203.60320284697508
 11
467.72064056939502
 21
203.60320284697508
  0
LINE
  8
_0-0_
  6
CONTINUOUS
 62
    7
 10
277.72064056939502
 20
393.60320284697508
 11
377.72064056939502
 21
393.60320284697508
  0
TEXT
  8
_0-0_
 62
    4
 10
325.84564056939502
 20
394.10320284697508
 40
2.5
 41
1
 50
0
  1
100
  0
LINE
  8
_0-0_
  6
CONTINUOUS
 62
    7
 10
277.72064056939502
 20
393.60320284697508
 11
280.61841804826224
 21
394.37965998228265
  0
LINE
  8
_0-0_
  6
CONTINUOUS
 62
    7
 10
277.72064056939502
 20
393.60320284697508
 11
280.61841804826224
 21
392.82674571166751
  0
LINE
  8
_0-0_
  6
CONTINUOUS
 62
    7
 10
377.72064056939502
 20
393.60320284697508
 11
374.82286309052779
 21
392.82674571166751
  0
LINE
  8
_0-0_
  6
CONTINUOUS
 62
    7
 10
377.72064056939502
 20
393.60320284697508
 11
374.82286309052779
 21
394.37965998228265
  0
LINE
  8
_0-0_
  6
CONTINUOUS
 62
    7
 10
407.72064056939502
 20
333.60320284697508
 11
437.72064056939502
 21
333.60320284697508
  0
TEXT
  8
_0-0_
 62
    4
 10
421.47064056939502
 20
334.10320284697508
 40
2.5
 41
1
 50
0
  1
30
  0
LINE
  8
_0-0_
  6
CONTINUOUS
 62
    7
 10
407.72064056939502
 20
333.60320284697508
 11
410.61841804826224
 21
334.37965998228265
  0
LINE
  8
_0-0_
  6
CONTINUOUS
 62
    7
 10
407.72064056939502
 20
333.60320284697508
 11
410.61841804826224
 21
332.82674571166751
  0
LINE
  8
_0-0_
  6
CONTINUOUS
 62
    7
 10
437.72064056939502
 20
333.60320284697508
 11
434.82286309052785
 21
332.82674571166751
  0
LINE
  8
_0-0_
  6
CONTINUOUS
 62
    7
 10
437.72064056939502
 20
333.60320284697508
 11
434.82286309052785
 21
334.37965998228265
  0
LINE
  8
_0-0_
  6
CONTINUOUS
 62
    7
 10
467.72064056939502
 20
303.60320284697508
 11
467.72064056939502
 21
203.60320284697508
  0
TEXT
  8
_0-0_
 62
    4
 10
468.22064056939502
 20
255.47820284697508
 40
2.5
 41
1
 50
-90
  1
100
  0
LINE
  8
_0-0_
  6
CONTINUOUS
 62
    7
 10
467.72064056939502
 20
303.60320284697508
 11
468.49709770470258
 21
300.70542536810791
  0
LINE
  8
_0-0_
  6
CONTINUOUS
 62
    7
 10
467.72064056939502
 20
303.60320284697508
 11
466.94418343408745
 21
300.70542536810791
  0
LINE
  8
_0-0_
  6
CONTINUOUS
 62
    7
 10
467.72064056939502
 20
203.60320284697508
 11
466.94418343408745
 21
206.50098032584231
  0
LINE
  8
_0-0_
  6
CONTINUOUS
 62
    7
 10
467.72064056939502
 20
203.60320284697508
 11
468.49709770470258
 21
206.50098032584231
  0
LINE
  8
_0-0_
  6
CENTER1
 62
    4
 10
277.72064056939502
 20
293.60320284697508
 11
277.72064056939502
 21
333.60320284697508
  0
LINE
  8
_0-0_
  6
CENTER1
 62
    4
 10
287.72064056939502
 20
303.60320284697508
 11
287.72064056939502
 21
333.60320284697508
  0
LINE
  8
_0-0_
  6
CONTINUOUS
 62
    7
 10
287.72064056939502
 20
333.60320284697508
 11
287.72064056939502
 21
363.60320284697508
  0
LINE
  8
_0-0_
  6
CENTER1
 62
    4
 10
287.72064056939502
 20
303.60320284697508
 11
277.72064056939502
 21
303.60320284697508
  0
LINE
  8
_0-0_
  6
CENTER1
 62
    4
 10
277.72064056939502
 20
293.60320284697508
 11
377.72064056939502
 21
293.60320284697508
  0
LINE
  8
_0-0_
  6
CENTER1
 62
    4
 10
377.72064056939502
 20
293.60320284697508
 11
407.72064056939502
 21
293.60320284697508
  0
LINE
  8
_0-0_
  6
CONTINUOUS
 62
    7
 10
407.72064056939502
 20
293.60320284697508
 11
437.72064056939502
 21
293.60320284697508
  0
LINE
  8
_0-0_
  6
CENTER1
 62
    4
 10
287.72064056939502
 20
363.60320284697508
 11
287.72064056939502
 21
378.60320284697508
  0
LINE
  8
_0-0_
  6
CENTER1
 62
    4
 10
437.72064056939502
 20
293.60320284697508
 11
452.72064056939502
 21
293.60320284697508
  0
LINE
  8
_0-0_
  6
CONTINUOUS
 62
    7
 10
277.72064056939502
 20
378.60320284697508
 11
287.72064056939502
 21
378.60320284697508
  0
TEXT
  8
_0-0_
 62
    4
 10
281.47064056939502
 20
379.10320284697508
 40
2.5
 41
1
 50
0
  1
10
  0
LINE
  8
_0-0_
  6
CONTINUOUS
 62
    7
 10
277.72064056939502
 20
378.60320284697508
 11
280.61841804826224
 21
379.37965998228265
  0
LINE
  8
_0-0_
  6
CONTINUOUS
 62
    7
 10
277.72064056939502
 20
378.60320284697508
 11
280.61841804826224
 21
377.82674571166751
  0
LINE
  8
_0-0_
  6
CONTINUOUS
 62
    7
 10
287.72064056939502
 20
378.60320284697508
 11
284.82286309052779
 21
377.82674571166751
  0
LINE
  8
_0-0_
  6
CONTINUOUS
 62
    7
 10
287.72064056939502
 20
378.60320284697508
 11
284.82286309052779
 21
379.37965998228265
  0
LINE
  8
_0-0_
  6
CONTINUOUS
 62
    7
 10
452.72064056939502
 20
303.60320284697508
 11
452.72064056939502
 21
293.60320284697508
  0
TEXT
  8
_0-0_
 62
    4
 10
453.22064056939502
 20
299.85320284697508
 40
2.5
 41
1
 50
-90
  1
10
  0
LINE
  8
_0-0_
  6
CONTINUOUS
 62
    7
 10
452.72064056939502
 20
303.60320284697508
 11
453.49709770470258
 21
300.70542536810791
  0
LINE
  8
_0-0_
  6
CONTINUOUS
 62
    7
 10
452.72064056939502
 20
303.60320284697508
 11
451.94418343408745
 21
300.70542536810791
  0
LINE
  8
_0-0_
  6
CONTINUOUS
 62
    7
 10
452.72064056939502
 20
293.60320284697508
 11
451.94418343408745
 21
296.50098032584231
  0
LINE
  8
_0-0_
  6
CONTINUOUS
 62
    7
 10
452.72064056939502
 20
293.60320284697508
 11
453.49709770470258
 21
296.50098032584231
  0
TEXT
  8
_0-0_
 62
    6
 10
276.09341637010675
 20
174.29181494661924
 40
10
 41
1
 50
0
  1
お弁当箱 DXF SAMPLE byKU
  0
ENDSEC
  0
EOF
